<?xml version="1.0" standalone="no"?>
<!DOCTYPE svg PUBLIC "-//W3C//DTD SVG 20010904//EN"
 "http://www.w3.org/TR/2001/REC-SVG-20010904/DTD/svg10.dtd">
<svg version="1.0" xmlns="http://www.w3.org/2000/svg"
 width="902.000000pt" height="218.000000pt" viewBox="0 0 902.000000 218.000000"
 preserveAspectRatio="xMidYMid meet">

<g transform="translate(0.000000,218.000000) scale(0.100000,-0.100000)"
fill="#000000" stroke="none">
<path d="M942 1634 c-45 -31 -17 -104 41 -104 57 0 74 84 22 108 -33 15 -36
15 -63 -4z"/>
<path d="M1092 1564 c-41 -29 -19 -94 32 -94 47 0 65 52 31 86 -28 28 -33 29
-63 8z"/>
<path d="M7642 1517 l-32 -33 1 -239 c0 -132 4 -278 8 -325 l8 -85 -47 -50
c-77 -84 -150 -202 -150 -244 0 -11 14 -36 31 -56 l31 -35 668 0 668 0 31 35
c17 20 31 43 31 53 -1 46 -109 216 -167 262 l-25 19 1 339 2 339 -31 27 -32
26 -482 0 -482 0 -32 -33z m1009 -34 c11 -12 15 -77 17 -297 3 -251 2 -284
-14 -313 l-17 -33 -472 0 c-391 0 -474 2 -491 14 -18 14 -19 31 -22 302 -2
203 1 296 9 316 l11 28 483 0 c436 0 484 -2 496 -17z m46 -709 c38 -28 153
-201 153 -230 0 -13 -9 -28 -19 -34 -27 -14 -1315 -14 -1342 0 -28 16 -23 49
17 115 51 85 103 145 138 161 25 11 127 13 528 11 485 -2 497 -2 525 -23z"/>
<path d="M7783 1432 c-15 -2 -26 -13 -30 -30 -10 -36 -10 -448 0 -458 16 -17
133 -22 459 -23 l337 -1 12 22 c15 28 24 353 12 418 -6 34 -15 48 -33 56 -23
11 -700 25 -757 16z m735 -47 c9 -3 12 -55 12 -215 l0 -210 -370 0 -370 0 0
213 c0 118 2 216 5 219 6 5 704 -1 723 -7z"/>
<path d="M7910 610 c-45 -5 -51 -8 -35 -15 29 -14 561 -13 575 1 8 8 -10 13
-66 17 -92 8 -397 6 -474 -3z"/>
<path d="M1210 1450 c-24 -24 -25 -43 -4 -65 12 -11 25 -14 43 -10 42 11 55
50 25 79 -21 21 -40 20 -64 -4z"/>
<path d="M720 1419 c-118 -13 -251 -114 -308 -236 -25 -53 -27 -68 -27 -178 0
-116 1 -123 33 -187 43 -87 138 -177 219 -208 80 -30 182 -37 261 -16 81 21
134 52 199 118 204 208 143 551 -120 677 -67 32 -150 42 -257 30z m60 -140 l0
-109 -90 0 c-81 0 -90 2 -90 18 0 27 56 134 82 159 29 28 79 53 90 47 4 -3 8
-54 8 -115z m96 89 c42 -32 52 -46 86 -116 20 -41 27 -67 21 -73 -6 -6 -43 -9
-84 -7 l-74 3 -3 108 c-3 119 1 126 54 85z m-237 -15 c0 -5 -19 -46 -42 -93
l-42 -85 -52 -3 c-65 -4 -67 7 -19 69 54 68 158 143 155 112z m352 -9 c66 -34
159 -140 144 -164 -7 -11 -74 -13 -91 -2 -6 4 -16 23 -23 42 -6 19 -24 59 -40
88 -16 28 -27 52 -25 52 3 0 19 -7 35 -16z m-441 -339 l0 -125 -60 0 c-56 0
-61 2 -70 26 -6 14 -10 58 -10 99 0 41 4 85 10 99 9 24 14 26 70 26 l60 0 0
-125z m225 0 l0 -120 -91 -3 -91 -3 -7 32 c-3 17 -6 60 -6 94 0 34 3 77 6 94
l7 32 91 -3 91 -3 0 -120z m230 0 l0 -120 -92 -3 -93 -3 0 126 0 126 93 -3 92
-3 0 -120z m172 88 c4 -21 7 -60 7 -88 0 -27 -3 -67 -7 -87 l-8 -38 -59 0 -59
0 -3 121 c-2 66 -1 123 1 125 2 2 30 4 62 4 l58 0 8 -37z m-22 -253 c16 -25
-70 -131 -138 -170 -50 -29 -87 -38 -87 -22 0 4 14 27 30 52 16 25 30 48 30
52 0 3 9 27 20 52 l19 46 60 0 c33 0 63 -4 66 -10z m-594 -20 c26 -50 77 -165
74 -169 -8 -8 -75 41 -117 87 -50 54 -71 86 -61 96 13 13 96 2 104 -14z m203
14 c13 -5 16 -24 16 -105 0 -117 -10 -129 -68 -82 -47 37 -120 172 -100 184
15 10 129 12 152 3z m226 -15 c0 -33 -59 -136 -97 -169 -19 -17 -45 -30 -58
-30 l-25 0 0 110 0 110 90 0 c85 0 90 -1 90 -21z"/>
<path d="M1538 1392 c-14 -6 7 -47 132 -252 l149 -245 1 -144 0 -144 61 7 c34
3 72 6 84 6 22 0 22 4 27 140 l5 141 133 220 c73 121 136 221 140 224 4 3 10
-13 14 -34 6 -38 7 -38 58 -45 29 -3 86 -6 126 -6 l72 0 0 -325 0 -325 90 0
90 0 0 325 0 325 125 0 125 0 0 72 0 71 -217 -6 c-120 -4 -310 -7 -423 -7
l-205 0 -101 -167 c-56 -92 -105 -168 -110 -170 -5 -2 -56 76 -114 172 l-105
174 -70 0 c-38 0 -78 -3 -87 -7z"/>
<path d="M3080 1005 l0 -395 90 0 90 0 0 110 0 110 88 0 89 0 73 -110 74 -110
83 0 c45 0 84 4 87 9 3 4 -28 56 -69 113 -41 58 -75 111 -75 118 0 6 24 34 54
61 70 64 89 105 90 194 1 88 -16 137 -66 191 -74 80 -175 103 -475 104 l-133
0 0 -395z m381 245 c42 -8 61 -18 87 -45 28 -31 32 -41 32 -92 0 -49 -4 -63
-26 -87 -42 -44 -82 -56 -194 -56 l-100 0 0 145 0 145 74 0 c40 0 98 -4 127
-10z"/>
<path d="M3920 1005 l0 -398 61 7 c34 3 73 6 85 6 l24 0 0 385 0 385 -32 0
c-18 0 -57 3 -85 6 l-53 7 0 -398z"/>
<path d="M4200 1330 l0 -70 118 0 c78 0 122 -4 130 -12 9 -9 12 -95 12 -325
l0 -313 85 0 85 0 0 313 c0 230 3 316 12 325 8 8 52 12 130 12 l118 0 0 70 0
70 -345 0 -345 0 0 -70z"/>
<path d="M5048 1393 l-48 -4 0 -385 0 -384 118 0 c64 0 201 -3 305 -7 l187 -6
0 71 0 72 -220 0 -220 0 0 95 0 95 185 0 185 0 0 70 0 70 -185 0 -186 0 3 88
3 87 208 3 207 2 0 70 0 70 -247 -2 c-137 -1 -269 -3 -295 -5z"/>
<path d="M5969 1376 c-181 -74 -278 -245 -248 -436 14 -94 49 -159 124 -228
91 -85 148 -106 290 -107 85 0 122 4 162 19 53 20 143 81 150 102 5 16 -78 94
-99 94 -9 0 -20 -5 -23 -10 -12 -19 -105 -60 -149 -66 -97 -14 -203 38 -253
123 -18 32 -27 63 -31 112 -11 159 79 268 230 279 78 6 118 -3 169 -38 24 -16
51 -30 59 -30 23 0 103 77 97 93 -10 26 -126 95 -177 106 -28 6 -95 11 -148
11 -78 0 -108 -5 -153 -24z"/>
<path d="M6618 1393 c-17 -4 -18 -31 -18 -389 l0 -384 24 0 c12 0 51 -3 85 -6
l61 -7 0 162 0 161 185 0 185 0 0 -160 0 -160 90 0 90 0 0 395 0 395 -90 0
-90 0 0 -160 0 -160 -182 2 -183 3 -3 158 -3 157 -67 -1 c-37 -1 -75 -3 -84
-6z"/>
<path d="M1307 1324 c-13 -13 -7 -51 9 -65 23 -19 49 1 49 37 0 24 -5 30 -25
32 -14 2 -29 0 -33 -4z"/>
<path d="M194 1179 c-10 -17 13 -36 27 -22 12 12 4 33 -11 33 -5 0 -12 -5 -16
-11z"/>
<path d="M1370 1165 c-19 -23 -8 -50 20 -50 19 0 26 6 28 24 5 35 -26 53 -48
26z"/>
<path d="M167 1033 c-24 -23 12 -55 38 -33 12 10 13 16 4 26 -12 15 -31 18
-42 7z"/>
<path d="M1390 995 c-10 -12 -10 -18 0 -29 16 -20 42 -8 38 17 -4 26 -21 32
-38 12z"/>
<path d="M187 883 c-13 -12 -7 -54 8 -59 19 -8 45 13 45 36 0 23 -37 39 -53
23z"/>
<path d="M1360 825 c0 -8 7 -15 15 -15 8 0 15 7 15 15 0 8 -7 15 -15 15 -8 0
-15 -7 -15 -15z"/>
<path d="M236 735 c-19 -20 -20 -26 -3 -49 8 -11 23 -17 38 -14 19 2 25 10 27
36 2 17 -1 32 -7 32 -5 0 -16 3 -24 6 -8 3 -22 -2 -31 -11z"/>
<path d="M326 611 c-22 -25 -13 -58 20 -73 19 -9 28 -8 44 7 25 23 26 47 2 68
-24 22 -45 21 -66 -2z"/>
<path d="M459 526 c-30 -14 -36 -51 -13 -77 23 -26 60 -24 78 4 31 47 -15 98
-65 73z"/>
<path d="M590 460 c-39 -39 -16 -93 40 -93 22 0 39 7 52 22 23 29 23 32 -3 65
-25 31 -61 34 -89 6z"/>
</g>
</svg>
