<?xml version="1.0" standalone="no"?>
<!DOCTYPE svg PUBLIC "-//W3C//DTD SVG 20010904//EN"
 "http://www.w3.org/TR/2001/REC-SVG-20010904/DTD/svg10.dtd">
<svg version="1.0" xmlns="http://www.w3.org/2000/svg"
 width="904.000000pt" height="216.000000pt" viewBox="0 0 904.000000 216.000000"
 preserveAspectRatio="xMidYMid meet">

<g transform="translate(0.000000,216.000000) scale(0.100000,-0.100000)"
fill="#000000" stroke="none">
<path d="M958 1629 c-22 -12 -24 -62 -4 -78 8 -7 27 -11 43 -9 24 2 28 8 31
36 5 53 -27 77 -70 51z"/>
<path d="M1102 1548 c-27 -27 -6 -68 34 -68 33 0 49 25 36 55 -13 27 -49 34
-70 13z"/>
<path d="M7663 1502 l-31 -27 7 -330 8 -330 -52 -55 c-93 -99 -145 -178 -145
-220 0 -11 8 -28 19 -39 17 -17 45 -19 355 -26 185 -4 492 -4 682 0 320 7 348
9 365 26 11 11 19 30 19 42 0 32 -70 138 -139 211 l-57 61 7 325 8 325 -32 33
-31 32 -475 0 -476 -1 -32 -27z m1001 -24 c14 -19 16 -66 16 -315 0 -314 0
-315 -53 -328 -12 -3 -228 -4 -480 -3 -441 3 -459 4 -473 22 -11 16 -14 76
-14 315 0 260 2 297 17 313 15 17 44 18 494 18 l478 0 15 -22z m33 -704 c30
-22 121 -137 149 -189 21 -40 13 -80 -18 -89 -30 -8 -1267 -8 -1307 0 -22 5
-33 14 -37 31 -8 32 2 53 75 156 45 63 70 89 98 100 33 14 99 16 525 14 475
-2 487 -3 515 -23z"/>
<path d="M7815 1422 c-16 -2 -36 -8 -42 -14 -19 -15 -18 -446 1 -470 12 -16
37 -18 282 -17 148 1 323 4 389 8 l120 6 9 123 c5 71 5 169 0 235 l-9 112 -55
6 c-64 8 -651 17 -695 11z m719 -38 c14 -5 16 -34 16 -220 l0 -213 -137 -3
c-76 -2 -247 -2 -380 0 l-243 3 0 219 0 220 364 0 c200 0 371 -3 380 -6z"/>
<path d="M7870 600 c0 -6 105 -10 295 -10 190 0 295 4 295 10 0 6 -105 10
-295 10 -190 0 -295 -4 -295 -10z"/>
<path d="M1221 1431 c-13 -24 8 -55 34 -50 23 5 40 32 32 53 -9 22 -54 20 -66
-3z"/>
<path d="M683 1401 c-98 -36 -190 -116 -249 -217 -28 -47 -29 -54 -29 -179 0
-117 2 -135 24 -179 32 -66 128 -166 193 -202 51 -28 58 -29 183 -29 124 0
133 1 184 29 76 40 151 118 192 201 32 66 34 75 34 175 0 97 -2 110 -32 173
-41 87 -117 163 -207 207 -59 29 -81 34 -155 37 -66 3 -98 -1 -138 -16z m107
-121 l0 -110 -90 0 c-84 0 -90 1 -90 20 0 43 69 150 117 182 58 38 63 30 63
-92z m118 76 c40 -36 92 -130 92 -165 0 -20 -6 -21 -90 -21 l-90 0 0 110 0
110 25 0 c14 0 41 -15 63 -34z m-238 4 c0 -6 -11 -27 -25 -48 -13 -20 -34 -63
-46 -94 l-22 -58 -58 0 c-32 0 -61 4 -64 10 -7 12 16 55 52 96 61 70 163 128
163 94z m348 -24 c52 -34 142 -133 142 -157 0 -12 -50 -20 -83 -14 -29 6 -36
15 -72 92 -22 48 -41 90 -43 95 -6 15 18 8 56 -16z m0 -208 c17 -17 17 -239 0
-256 -8 -8 -46 -12 -105 -12 l-93 0 0 133 c0 74 3 137 7 140 12 12 178 8 191
-5z m169 -18 c7 -15 13 -63 13 -117 0 -125 -20 -146 -119 -127 l-31 7 0 134 0
134 62 -3 c55 -3 64 -6 75 -28z m-627 -108 c0 -71 -2 -131 -4 -133 -2 -2 -31
-2 -65 -1 l-60 4 -12 56 c-10 51 -6 151 8 188 4 10 23 14 69 14 l64 0 0 -128z
m230 -2 l0 -131 -97 3 -98 3 -3 114 c-1 63 0 121 2 128 4 9 31 13 101 13 l95
0 0 -130z m-224 -168 c6 -4 18 -27 28 -52 10 -25 28 -65 42 -89 27 -48 26 -56
-5 -46 -61 19 -180 147 -167 180 6 16 81 21 102 7z m208 2 c13 -5 16 -25 16
-115 0 -108 0 -109 -24 -109 -32 0 -98 67 -130 133 -29 56 -32 83 -13 90 18 8
133 8 151 1z m224 -17 c6 -30 -56 -144 -96 -177 -20 -16 -47 -30 -59 -30 -23
0 -23 2 -23 109 0 78 4 111 13 115 6 2 46 4 87 3 64 -2 75 -5 78 -20z m151 14
c12 -7 10 -15 -7 -42 -36 -59 -142 -149 -175 -149 -11 0 -5 19 24 76 21 41 39
81 39 89 0 30 84 48 119 26z"/>
<path d="M2050 1230 c-52 -88 -103 -168 -113 -178 -18 -16 -20 -15 -37 8 -11
14 -59 91 -107 172 l-88 147 -77 1 c-43 0 -78 -3 -78 -6 0 -8 88 -159 196
-337 l84 -137 0 -145 0 -145 85 0 85 0 0 146 0 146 82 137 c112 187 199 321
208 321 9 0 20 -36 20 -66 0 -19 8 -22 77 -28 42 -3 98 -6 125 -6 l48 0 0
-325 0 -325 80 0 80 0 0 324 0 323 53 7 c28 3 85 6 125 6 l72 0 0 55 0 55
-287 0 c-159 0 -344 3 -413 6 l-125 5 -95 -161z"/>
<path d="M3100 1000 l0 -390 80 0 80 0 0 110 0 110 98 0 97 -1 70 -103 70
-104 80 -4 c44 -3 82 -4 84 -2 2 2 -10 20 -26 41 -17 21 -54 74 -82 117 l-52
79 70 64 c78 71 91 99 91 198 0 76 -24 128 -80 179 -67 60 -118 78 -250 87
-63 4 -163 8 -222 8 l-108 1 0 -390z m413 237 c55 -23 77 -60 77 -128 0 -111
-71 -153 -246 -147 l-79 3 -3 134 c-2 96 1 137 10 148 10 13 30 15 110 10 53
-3 112 -12 131 -20z"/>
<path d="M3940 1000 l0 -390 80 0 80 0 0 390 0 390 -80 0 -80 0 0 -390z"/>
<path d="M4220 1325 l0 -65 125 0 125 0 0 -326 0 -327 38 7 c20 3 56 6 79 6
l43 0 2 318 3 317 128 3 127 3 0 64 0 65 -335 0 -335 0 0 -65z"/>
<path d="M5099 1383 l-76 -4 -6 -151 c-4 -83 -7 -256 -7 -385 l0 -233 300 0
300 0 0 60 0 60 -208 0 c-148 0 -211 3 -220 12 -7 7 -12 44 -12 98 0 54 5 91
12 98 8 8 64 12 185 12 l173 0 0 55 0 55 -185 0 -185 0 0 100 0 100 210 0 210
0 0 65 0 65 -207 -2 c-115 -1 -242 -4 -284 -5z"/>
<path d="M6020 1381 c-107 -34 -199 -112 -245 -206 -37 -75 -47 -210 -22 -296
46 -157 185 -263 362 -276 118 -9 248 31 307 94 l28 29 -44 43 -44 43 -51 -36
c-60 -41 -98 -50 -179 -44 -153 12 -251 129 -240 287 11 143 105 238 248 249
71 5 115 -8 183 -55 l38 -26 37 34 c20 19 41 37 46 41 16 13 -31 53 -102 89
-62 32 -72 34 -181 36 -64 1 -127 -2 -141 -6z"/>
<path d="M6620 1000 l0 -390 80 0 80 0 0 165 0 165 185 0 185 0 0 -165 0 -165
85 0 85 0 0 391 0 392 -37 -7 c-21 -3 -57 -6 -80 -6 l-43 0 0 -94 c0 -51 -3
-121 -6 -155 l-7 -61 -183 0 -184 0 0 160 0 160 -80 0 -80 0 0 -390z"/>
<path d="M1315 1300 c-9 -15 14 -40 36 -40 14 0 19 7 19 25 0 20 -5 25 -24 25
-14 0 -28 -5 -31 -10z"/>
<path d="M215 1170 c-3 -5 -1 -10 4 -10 6 0 11 5 11 10 0 6 -2 10 -4 10 -3 0
-8 -4 -11 -10z"/>
<path d="M1380 1137 c0 -19 10 -27 26 -20 21 8 17 33 -6 33 -11 0 -20 -6 -20
-13z"/>
<path d="M185 1020 c-10 -17 12 -37 25 -24 8 8 6 15 -4 23 -10 9 -16 9 -21 1z"/>
<path d="M1400 980 c0 -5 7 -10 15 -10 8 0 15 5 15 10 0 6 -7 10 -15 10 -8 0
-15 -4 -15 -10z"/>
<path d="M192 853 c4 -22 43 -25 43 -3 0 8 -11 16 -23 18 -19 3 -23 0 -20 -15z"/>
<path d="M1380 820 c0 -5 5 -10 11 -10 5 0 7 5 4 10 -3 6 -8 10 -11 10 -2 0
-4 -4 -4 -10z"/>
<path d="M263 733 c-19 -7 -16 -53 3 -60 20 -7 45 22 38 42 -7 16 -24 24 -41
18z"/>
<path d="M344 596 c-11 -28 1 -51 25 -51 32 0 49 28 32 49 -17 20 -50 21 -57
2z"/>
<path d="M468 509 c-21 -12 -24 -49 -6 -67 18 -18 56 -14 67 6 11 20 4 62 -9
62 -5 0 -14 2 -22 5 -7 2 -21 0 -30 -6z"/>
<path d="M600 436 c-5 -14 -7 -33 -4 -41 9 -22 41 -37 64 -30 53 17 39 88 -18
93 -27 3 -34 -1 -42 -22z"/>
</g>
</svg>
