<?xml version="1.0" standalone="no"?>
<!DOCTYPE svg PUBLIC "-//W3C//DTD SVG 20010904//EN"
 "http://www.w3.org/TR/2001/REC-SVG-20010904/DTD/svg10.dtd">
<svg version="1.0" xmlns="http://www.w3.org/2000/svg"
 width="1052.000000pt" height="202.000000pt" viewBox="0 0 1052.000000 202.000000"
 preserveAspectRatio="xMidYMid meet">

<g transform="translate(0.000000,202.000000) scale(0.100000,-0.100000)"
fill="#000000" stroke="none">
<path d="M1787 1532 c-25 -28 -21 -67 9 -91 15 -12 32 -21 39 -21 23 0 65 41
65 64 0 12 -7 32 -16 44 -19 28 -74 30 -97 4z"/>
<path d="M1938 1469 c-21 -12 -24 -69 -6 -87 20 -20 76 -15 88 7 32 61 -23
115 -82 80z"/>
<path d="M8298 1421 l-33 -29 0 -294 c0 -161 4 -304 8 -318 7 -21 3 -28 -20
-42 -15 -9 -58 -61 -95 -115 -79 -115 -86 -147 -39 -194 l29 -29 647 0 647 0
30 30 c26 26 30 36 25 68 -6 45 -113 206 -157 236 -23 16 -29 26 -23 41 12 36
15 557 3 597 -6 20 -22 46 -37 57 -25 21 -37 21 -489 21 l-464 0 -32 -29z
m966 -43 c14 -19 16 -64 16 -285 0 -146 -4 -273 -10 -287 l-10 -26 -464 0
c-450 0 -466 1 -476 19 -6 12 -10 123 -10 292 0 239 2 275 17 291 15 17 43 18
469 18 l453 0 15 -22z m33 -673 c37 -24 153 -184 153 -212 0 -43 5 -43 -655
-43 -661 0 -655 0 -655 43 0 15 123 206 133 207 1 0 20 7 42 15 33 12 117 14
495 12 438 -2 456 -3 487 -22z"/>
<path d="M8402 1328 c-9 -9 -12 -70 -12 -230 0 -205 1 -219 20 -238 19 -19 33
-20 385 -20 352 0 366 1 385 20 19 19 20 33 20 228 0 164 -3 212 -14 228 -14
18 -31 19 -393 22 -290 2 -381 0 -391 -10z m501 -35 l247 -6 0 -199 0 -198
-355 0 -355 0 0 205 0 205 108 0 c59 0 218 -3 355 -7z"/>
<path d="M8497 556 c-13 -33 14 -36 298 -36 284 0 311 3 298 36 -8 21 -588 21
-596 0z"/>
<path d="M2056 1364 c-24 -24 -20 -61 9 -80 23 -15 27 -15 50 0 42 28 24 96
-25 96 -10 0 -26 -7 -34 -16z"/>
<path d="M1529 1321 c-147 -47 -256 -177 -278 -331 -18 -134 20 -250 114 -349
235 -247 648 -113 705 229 27 158 -55 329 -200 417 -87 53 -235 68 -341 34z
m111 -126 l0 -105 -80 0 c-70 0 -80 2 -80 18 0 33 51 120 91 156 63 58 69 52
69 -69z m96 83 c40 -31 52 -46 79 -103 40 -82 38 -85 -55 -85 l-80 0 0 105 c0
116 4 123 56 83z m-255 -60 c-16 -29 -34 -70 -41 -90 -11 -37 -13 -38 -61 -38
-35 0 -49 4 -49 14 0 29 142 166 172 166 4 0 -5 -24 -21 -52z m395 17 c48 -33
114 -111 114 -134 0 -6 -20 -11 -49 -11 -48 0 -50 1 -61 38 -7 20 -25 61 -41
90 -16 28 -26 52 -22 52 4 0 31 -16 59 -35z m-460 -307 l-1 -123 -46 -3 c-31
-2 -51 2 -61 12 -20 19 -30 119 -18 176 5 25 9 48 10 53 0 4 26 7 59 7 l58 0
-1 -122z m222 0 l-3 -123 -65 -3 c-102 -5 -107 -2 -115 68 -4 33 -4 87 0 120
l7 60 89 0 90 0 -3 -122z m228 66 c7 -62 -1 -173 -15 -187 -4 -4 -43 -7 -87
-5 l-79 3 -3 123 -3 122 90 0 90 0 7 -56z m161 19 c11 -51 7 -151 -6 -186 -10
-26 -14 -28 -62 -25 l-52 3 -1 123 -1 122 57 0 57 0 8 -37z m-587 -280 c7 -21
25 -62 41 -90 16 -29 26 -53 22 -53 -22 0 -99 59 -133 101 -55 70 -53 79 16
79 40 0 43 -2 54 -37z m198 -70 c3 -116 0 -119 -60 -78 -45 30 -117 163 -96
177 7 4 45 7 83 6 l70 -3 3 -102z m202 86 c0 -34 -61 -139 -95 -165 -58 -44
-65 -37 -65 74 0 54 3 102 7 105 3 4 39 7 80 7 68 0 73 -2 73 -21z m150 8 c0
-24 -59 -96 -107 -132 -68 -49 -79 -45 -44 18 16 28 32 63 36 77 12 41 25 50
71 50 30 0 44 -4 44 -13z"/>
<path d="M6696 1301 c-70 -24 -155 -80 -191 -127 -14 -19 -38 -60 -53 -92 -37
-78 -38 -217 -3 -304 62 -156 237 -259 416 -245 94 8 165 31 216 70 69 53 70
60 19 112 -24 25 -50 45 -58 45 -7 0 -30 -13 -50 -29 -51 -40 -104 -55 -174
-48 -155 14 -252 164 -208 321 45 161 255 219 397 110 l33 -25 50 42 c28 23
50 47 50 54 0 21 -65 74 -125 101 -81 37 -230 44 -319 15z"/>
<path d="M2383 1298 c2 -7 68 -118 146 -246 l140 -233 3 -137 3 -137 85 0 85
0 3 139 3 139 132 220 132 219 3 -46 3 -45 122 -3 122 -3 3 -313 2 -313 83 3
82 3 5 310 5 310 123 3 122 3 0 69 0 70 -409 0 -410 0 -102 -170 c-56 -94
-104 -169 -106 -167 -2 2 -48 78 -102 168 l-99 164 -92 3 c-72 2 -91 0 -87
-10z"/>
<path d="M3890 926 l0 -386 85 0 84 0 3 108 3 107 80 3 81 3 75 -108 74 -108
93 -3 c110 -3 109 -16 1 138 -38 54 -69 103 -69 108 0 6 9 13 19 17 37 11 99
85 117 137 21 64 15 158 -14 215 -12 22 -40 57 -63 76 -72 62 -108 70 -351 75
l-218 4 0 -386z m424 214 c42 -26 60 -67 53 -126 -9 -86 -59 -114 -207 -114
l-100 0 0 128 c0 71 3 132 8 137 4 4 53 5 110 2 80 -5 110 -11 136 -27z"/>
<path d="M4700 925 l0 -386 83 3 82 3 3 383 2 382 -85 0 -85 0 0 -385z"/>
<path d="M4970 1240 l0 -70 120 0 120 0 2 -312 3 -313 85 0 85 0 3 313 2 312
120 0 120 0 0 70 0 70 -330 0 -330 0 0 -70z"/>
<path d="M5735 1297 c-3 -6 -4 -179 -3 -382 l3 -370 295 0 295 0 3 67 3 68
-208 2 -208 3 -3 88 -3 87 176 0 175 0 0 70 0 70 -175 0 -175 0 0 85 0 85 200
0 200 0 0 70 0 70 -285 0 c-220 0 -287 -3 -290 -13z"/>
<path d="M7275 1297 c-3 -6 -4 -179 -3 -382 l3 -370 88 -3 87 -3 0 161 0 160
175 0 175 0 0 -160 0 -161 88 3 87 3 0 380 0 380 -87 3 -88 3 0 -151 0 -150
-175 0 -175 0 0 150 0 150 -85 0 c-59 0 -87 -4 -90 -13z"/>
<path d="M2151 1236 c-7 -8 -11 -27 -9 -43 3 -25 7 -28 38 -28 31 0 35 3 38
28 4 32 -13 57 -38 57 -10 0 -23 -6 -29 -14z"/>
<path d="M1073 1094 c-7 -18 14 -35 34 -27 7 3 13 14 13 24 0 24 -38 26 -47 3z"/>
<path d="M2214 1092 c-20 -13 -23 -41 -7 -57 19 -19 42 -16 57 8 19 30 -20 70
-50 49z"/>
<path d="M1050 956 c-18 -22 -5 -46 25 -46 23 0 26 4 23 27 -3 32 -29 41 -48
19z"/>
<path d="M2232 931 c-21 -13 -10 -46 16 -49 27 -4 40 22 22 43 -14 17 -20 18
-38 6z"/>
<path d="M1060 805 c-20 -24 -3 -55 30 -55 20 0 31 6 35 20 8 25 -10 50 -35
50 -10 0 -23 -7 -30 -15z"/>
<path d="M2198 768 c-8 -21 2 -38 22 -38 19 0 30 17 23 38 -3 6 -13 12 -23 12
-10 0 -20 -6 -22 -12z"/>
<path d="M1117 672 c-30 -33 -15 -72 28 -72 44 0 63 60 26 80 -27 14 -35 13
-54 -8z"/>
<path d="M1202 558 c-15 -15 -15 -61 0 -76 7 -7 24 -12 38 -12 33 0 50 17 50
50 0 33 -17 50 -50 50 -14 0 -31 -5 -38 -12z"/>
<path d="M1318 469 c-21 -12 -24 -69 -6 -87 7 -7 27 -12 45 -12 24 0 37 7 50
26 15 24 15 29 2 53 -16 29 -61 39 -91 20z"/>
<path d="M1460 412 c-44 -35 -15 -112 42 -112 23 0 68 43 68 65 0 22 -45 65
-68 65 -11 0 -30 -8 -42 -18z"/>
</g>
</svg>
